<svg width="128" height="16" viewBox="0 0 128 16" fill="none" xmlns="http://www.w3.org/2000/svg">
<path d="M4.64923 8.39718H3.50703V7.85021C3.50703 7.50701 3.38906 7.19599 3.15311 6.91714C2.92789 6.6383 2.57933 6.30046 2.10744 5.90364C1.68917 5.56045 1.37278 5.26015 1.15829 5.00276C0.943788 4.73463 0.799002 4.45043 0.723928 4.15013C0.648854 3.84983 0.611317 3.46374 0.611317 2.99184C0.611317 2.35908 0.729291 1.84965 0.965238 1.46355C1.21191 1.07746 1.57656 0.798609 2.05917 0.627011C2.54179 0.455413 3.14775 0.369615 3.87704 0.369615C4.15589 0.369615 4.46154 0.396427 4.79401 0.450051C5.12649 0.503675 5.45359 0.568024 5.77534 0.643098C6.09709 0.718172 6.37593 0.793247 6.61188 0.868321L6.51536 1.96226C6.30086 1.90863 6.04346 1.85501 5.74317 1.80138C5.44287 1.74776 5.14257 1.70486 4.84228 1.67269C4.54198 1.62979 4.27922 1.60834 4.054 1.60834C3.35688 1.60834 2.84209 1.72095 2.50962 1.94617C2.18787 2.17139 2.027 2.55212 2.027 3.08837C2.027 3.38866 2.05917 3.6407 2.12352 3.84447C2.1986 4.04824 2.33266 4.25738 2.52571 4.47188C2.72948 4.68637 3.02441 4.95449 3.41051 5.27624C3.70008 5.52291 3.95211 5.75886 4.16661 5.98408C4.39183 6.2093 4.56343 6.43453 4.6814 6.65975C4.8101 6.88497 4.87445 7.12628 4.87445 7.38368C4.87445 7.59817 4.84764 7.79122 4.79401 7.96282C4.75111 8.13442 4.70285 8.2792 4.64923 8.39718ZM4.84228 11.6468H3.36225V9.74851H4.84228V11.6468ZM10.9392 15.2825C10.7998 15.2825 10.655 15.2718 10.5049 15.2504C10.344 15.2396 10.1885 15.2289 10.0383 15.2182L10.167 13.9795C10.3172 13.9902 10.462 14.0009 10.6014 14.0116C10.7301 14.0331 10.8427 14.0438 10.9392 14.0438C11.4326 14.0438 11.8294 13.8561 12.1297 13.4808C12.43 13.1054 12.5801 12.5852 12.5801 11.9203V3.61925H13.9636V11.9203C13.9636 12.5852 13.8349 13.1697 13.5776 13.6738C13.3202 14.1886 12.9609 14.5854 12.4997 14.8643C12.0493 15.1431 11.5291 15.2825 10.9392 15.2825ZM18.8781 15.2825C18.492 15.2825 18.0844 15.2504 17.6554 15.186C17.2372 15.1324 16.776 15.052 16.2719 14.9447L16.4811 13.8347C17.0495 13.9098 17.5214 13.9634 17.8967 13.9956C18.2828 14.0277 18.6099 14.0438 18.8781 14.0438C19.7468 14.0438 20.3795 13.8776 20.7764 13.5451C21.1732 13.2126 21.3716 12.73 21.3716 12.0973V4.4397L21.999 4.85797H19.3768C18.7869 4.85797 18.3257 4.93304 17.9933 5.08319C17.6715 5.22262 17.4463 5.49074 17.3176 5.88756C17.1889 6.28438 17.1245 6.86888 17.1245 7.64107C17.1245 8.41326 17.1835 8.99777 17.3015 9.39459C17.4302 9.79141 17.6608 10.0649 17.9933 10.215C18.3257 10.3545 18.7869 10.4242 19.3768 10.4242H21.3716V11.6629H19.3768C18.4544 11.6629 17.7251 11.5235 17.1889 11.2446C16.6634 10.9551 16.288 10.5153 16.0628 9.92547C15.8483 9.32488 15.741 8.56341 15.741 7.64107C15.741 6.72946 15.8483 5.97336 16.0628 5.37276C16.288 4.77217 16.6634 4.33245 17.1889 4.05361C17.7251 3.76403 18.4544 3.61925 19.3768 3.61925H22.7551V12.0812C22.7551 12.7568 22.5996 13.336 22.2886 13.8186C21.9776 14.3012 21.5325 14.6659 20.9533 14.9125C20.3742 15.1592 19.6824 15.2825 18.8781 15.2825ZM26.8381 11.6629V10.4242H28.8973V11.6629H26.8381ZM24.1516 15.2825C24.0121 15.2825 23.8673 15.2718 23.7172 15.2504C23.5563 15.2396 23.4008 15.2289 23.2507 15.2182L23.3794 13.9795C23.5295 13.9902 23.6743 14.0009 23.8137 14.0116C23.9424 14.0331 24.055 14.0438 24.1516 14.0438C24.6449 14.0438 25.0417 13.8561 25.342 13.4808C25.6423 13.1054 25.7925 12.5852 25.7925 11.9203V3.61925H27.176V11.9203C27.176 12.5852 27.0473 13.1697 26.7899 13.6738C26.5325 14.1886 26.1732 14.5854 25.712 14.8643C25.2616 15.1431 24.7414 15.2825 24.1516 15.2825ZM28.8973 11.6629V10.4242C28.9617 10.4242 29.0153 10.4403 29.0582 10.4724C29.1011 10.4939 29.1333 10.5314 29.1547 10.585C29.1762 10.6387 29.1922 10.703 29.203 10.7781C29.2137 10.8532 29.2191 10.939 29.2191 11.0355C29.2191 11.132 29.2137 11.2232 29.203 11.309C29.1922 11.3841 29.1762 11.4484 29.1547 11.502C29.1333 11.5556 29.1011 11.5985 29.0582 11.6307C29.0153 11.6522 28.9617 11.6629 28.8973 11.6629ZM38.0609 11.6629V10.4242H39.7983V11.6629H38.0609ZM28.8912 11.6629C28.8268 11.6629 28.7732 11.6522 28.7303 11.6307C28.6874 11.5985 28.6552 11.5556 28.6338 11.502C28.6123 11.4484 28.5962 11.3841 28.5855 11.309C28.5748 11.2232 28.5694 11.132 28.5694 11.0355C28.5694 10.9068 28.5801 10.7995 28.6016 10.7137C28.6123 10.6279 28.6445 10.5582 28.6981 10.5046C28.741 10.451 28.8054 10.4242 28.8912 10.4242V11.6629ZM28.8912 11.6629V10.4242H37.6266L36.6935 11.0998V7.72151C36.6935 6.99222 36.6077 6.41844 36.4361 6.00017C36.2752 5.5819 35.991 5.28696 35.5835 5.11537C35.1866 4.94377 34.645 4.85797 33.9586 4.85797C33.5082 4.85797 33.0631 4.89015 32.6234 4.95449C32.1837 5.00812 31.8405 5.08855 31.5938 5.1958L32.4304 4.35926C32.366 4.61666 32.3017 4.94377 32.2373 5.34059C32.173 5.72668 32.1193 6.14495 32.0764 6.5954C32.0335 7.03512 32.0121 7.47484 32.0121 7.91456C32.0121 8.365 32.0335 8.81008 32.0764 9.2498C32.1193 9.68952 32.1676 10.0703 32.2212 10.392C32.2748 10.703 32.3177 10.9229 32.3499 11.0516L31.0468 11.4216C31.0039 11.2822 30.9503 11.0409 30.886 10.6977C30.8216 10.3545 30.7626 9.94156 30.709 9.45894C30.6661 8.97632 30.6447 8.46152 30.6447 7.91456C30.6447 7.38904 30.6715 6.87961 30.7251 6.38626C30.7787 5.88219 30.8377 5.42639 30.9021 5.01884C30.9771 4.6113 31.0468 4.28419 31.1112 4.03752C31.3471 3.94099 31.7225 3.84447 32.2373 3.74795C32.7628 3.65142 33.3366 3.60316 33.9586 3.60316C34.8703 3.60316 35.6317 3.73722 36.243 4.00534C36.8544 4.27347 37.3102 4.70782 37.6105 5.30841C37.9108 5.90901 38.0609 6.71337 38.0609 7.72151V11.6629H28.8912ZM39.7983 11.6629V10.4242C39.8627 10.4242 39.9163 10.4403 39.9592 10.4724C40.0021 10.4939 40.0343 10.5314 40.0557 10.585C40.0772 10.6387 40.0933 10.703 40.104 10.7781C40.1147 10.8532 40.1201 10.939 40.1201 11.0355C40.1201 11.132 40.1147 11.2232 40.104 11.309C40.0933 11.3841 40.0772 11.4484 40.0557 11.502C40.0343 11.5556 40.0021 11.5985 39.9592 11.6307C39.9163 11.6522 39.8627 11.6629 39.7983 11.6629ZM41.7245 11.6629V0.144393H43.108V11.6629H41.7245ZM39.7941 11.6629V10.4242H41.7245V11.6629H39.7941ZM39.7941 11.6629C39.7297 11.6629 39.6761 11.6522 39.6332 11.6307C39.5903 11.5985 39.5581 11.5556 39.5367 11.502C39.5152 11.4484 39.4991 11.3841 39.4884 11.309C39.4777 11.2232 39.4723 11.132 39.4723 11.0355C39.4723 10.9068 39.483 10.7995 39.5045 10.7137C39.5152 10.6279 39.5474 10.5582 39.601 10.5046C39.6439 10.451 39.7083 10.4242 39.7941 10.4242V11.6629ZM45.8469 11.6629V0.144393H47.2143V11.6629H45.8469ZM56.5629 11.6629C55.6406 11.6629 54.9113 11.5235 54.3751 11.2446C53.8495 10.9551 53.4742 10.5153 53.249 9.92547C53.0345 9.32488 52.9272 8.56341 52.9272 7.64107C52.9272 6.72946 53.0345 5.97336 53.249 5.37276C53.4742 4.77217 53.8495 4.33245 54.3751 4.05361C54.9113 3.76403 55.6406 3.61925 56.5629 3.61925H59.9413V10.9711H58.5578V4.32709L59.1852 4.85797H56.5629C55.9731 4.85797 55.5119 4.93304 55.1794 5.08319C54.8577 5.22262 54.6325 5.49074 54.5038 5.88756C54.3751 6.28438 54.3107 6.86888 54.3107 7.64107C54.3107 8.41326 54.3697 8.99777 54.4877 9.39459C54.6164 9.79141 54.847 10.0649 55.1794 10.215C55.5119 10.3545 55.9731 10.4242 56.5629 10.4242H61.6787V11.6629H56.5629ZM61.6787 11.6629V10.4242C61.743 10.4242 61.7967 10.4403 61.8396 10.4724C61.8825 10.4939 61.9146 10.5314 61.9361 10.585C61.9575 10.6387 61.9736 10.703 61.9844 10.7781C61.9951 10.8532 62.0004 10.939 62.0004 11.0355C62.0004 11.132 61.9951 11.2232 61.9844 11.309C61.9736 11.3841 61.9575 11.4484 61.9361 11.502C61.9146 11.5556 61.8825 11.5985 61.8396 11.6307C61.7967 11.6522 61.743 11.6629 61.6787 11.6629ZM54.9059 2.17139V0.675273H56.2734V2.17139H54.9059ZM57.2064 2.17139V0.675273H58.5738V2.17139H57.2064ZM70.8482 11.6629V10.4242H72.5856V11.6629H70.8482ZM61.6784 11.6629C61.6141 11.6629 61.5605 11.6522 61.5176 11.6307C61.4747 11.5985 61.4425 11.5556 61.421 11.502C61.3996 11.4484 61.3835 11.3841 61.3728 11.309C61.3621 11.2232 61.3567 11.132 61.3567 11.0355C61.3567 10.9068 61.3674 10.7995 61.3889 10.7137C61.3996 10.6279 61.4318 10.5582 61.4854 10.5046C61.5283 10.451 61.5926 10.4242 61.6784 10.4242V11.6629ZM61.6784 11.6629V10.4242H70.4138L69.4808 11.0998V7.72151C69.4808 6.99222 69.395 6.41844 69.2234 6.00017C69.0625 5.5819 68.7783 5.28696 68.3708 5.11537C67.9739 4.94377 67.4323 4.85797 66.7459 4.85797C66.2955 4.85797 65.8504 4.89015 65.4107 4.95449C64.971 5.00812 64.6278 5.08855 64.3811 5.1958L65.2176 4.35926C65.1533 4.61666 65.0889 4.94377 65.0246 5.34059C64.9603 5.72668 64.9066 6.14495 64.8637 6.5954C64.8208 7.03512 64.7994 7.47484 64.7994 7.91456C64.7994 8.365 64.8208 8.81008 64.8637 9.2498C64.9066 9.68952 64.9549 10.0703 65.0085 10.392C65.0621 10.703 65.105 10.9229 65.1372 11.0516L63.8341 11.4216C63.7912 11.2822 63.7376 11.0409 63.6733 10.6977C63.6089 10.3545 63.5499 9.94156 63.4963 9.45894C63.4534 8.97632 63.432 8.46152 63.432 7.91456C63.432 7.38904 63.4588 6.87961 63.5124 6.38626C63.566 5.88219 63.625 5.42639 63.6894 5.01884C63.7644 4.6113 63.8341 4.28419 63.8985 4.03752C64.1344 3.94099 64.5098 3.84447 65.0246 3.74795C65.5501 3.65142 66.1239 3.60316 66.7459 3.60316C67.6576 3.60316 68.419 3.73722 69.0303 4.00534C69.6417 4.27347 70.0975 4.70782 70.3978 5.30841C70.6981 5.90901 70.8482 6.71337 70.8482 7.72151V11.6629H61.6784ZM72.5856 11.6629V10.4242C72.65 10.4242 72.7036 10.4403 72.7465 10.4724C72.7894 10.4939 72.8216 10.5314 72.843 10.585C72.8645 10.6387 72.8806 10.703 72.8913 10.7781C72.902 10.8532 72.9074 10.939 72.9074 11.0355C72.9074 11.132 72.902 11.2232 72.8913 11.309C72.8806 11.3841 72.8645 11.4484 72.843 11.502C72.8216 11.5556 72.7894 11.5985 72.7465 11.6307C72.7036 11.6522 72.65 11.6629 72.5856 11.6629ZM75.8953 11.6629V10.4242H77.6167V11.6629H75.8953ZM72.5814 11.6629C72.517 11.6629 72.4634 11.6522 72.4205 11.6307C72.3776 11.5985 72.3454 11.5556 72.324 11.502C72.3025 11.4484 72.2864 11.3841 72.2757 11.309C72.265 11.2232 72.2596 11.132 72.2596 11.0355C72.2596 10.9068 72.2703 10.7995 72.2918 10.7137C72.3025 10.6279 72.3347 10.5582 72.3883 10.5046C72.4312 10.451 72.4956 10.4242 72.5814 10.4242V11.6629ZM74.5118 11.6629V0.144393H75.8953V11.6629H74.5118ZM72.5814 11.6629V10.4242H74.5118V11.6629H72.5814ZM77.6167 11.6629V10.4242C77.681 10.4242 77.7347 10.4403 77.7776 10.4724C77.8205 10.4939 77.8526 10.5314 77.8741 10.585C77.8955 10.6387 77.9116 10.703 77.9223 10.7781C77.9331 10.8532 77.9384 10.939 77.9384 11.0355C77.9384 11.132 77.9331 11.2232 77.9223 11.309C77.9116 11.3841 77.8955 11.4484 77.8741 11.502C77.8526 11.5556 77.8205 11.5985 77.7776 11.6307C77.7347 11.6522 77.681 11.6629 77.6167 11.6629ZM77.6243 11.6629V10.4242H85.668L85.1854 10.8424V8.07543C85.1854 7.49629 85.1103 7.02439 84.9602 6.65975C84.81 6.28438 84.5848 6.00553 84.2845 5.82321C83.9949 5.64089 83.6249 5.54972 83.1745 5.54972H79.6674L78.6861 4.08578L79.3939 2.71836C79.5226 2.49314 79.6513 2.26255 79.78 2.02661C79.9195 1.77993 80.0911 1.49573 80.2948 1.17398C80.4986 0.852233 80.756 0.460776 81.067 -0.00039314L82.2092 0.69136C81.9089 1.15253 81.6623 1.53862 81.4692 1.84965C81.2762 2.14994 81.1153 2.4127 80.9866 2.63792C80.8579 2.85242 80.7346 3.07228 80.6166 3.2975L79.8283 4.79362L79.5066 4.29491H83.1745C83.8501 4.29491 84.4078 4.41289 84.8475 4.64884C85.2873 4.87406 85.6305 5.17972 85.8771 5.56581C86.1345 5.94118 86.3115 6.34873 86.408 6.78845C86.5153 7.22817 86.5689 7.65716 86.5689 8.07543V11.6629H77.6243ZM77.6243 11.6629C77.56 11.6629 77.5064 11.6522 77.4635 11.6307C77.4206 11.5985 77.3884 11.5556 77.3669 11.502C77.3455 11.4484 77.3294 11.3841 77.3187 11.309C77.308 11.2232 77.3026 11.132 77.3026 11.0355C77.3026 10.9068 77.3133 10.7995 77.3348 10.7137C77.3455 10.6279 77.3777 10.5582 77.4313 10.5046C77.4742 10.451 77.5385 10.4242 77.6243 10.4242V11.6629ZM102.843 11.6629V10.4242H104.58V11.6629H102.843ZM96.778 11.6629C95.7055 11.6629 94.81 11.5396 94.0915 11.2929C93.3729 11.0355 92.8313 10.6494 92.4666 10.1346C92.1127 9.60909 91.9358 8.94951 91.9358 8.15587C91.9358 7.89847 91.9518 7.62499 91.984 7.33541C92.0269 7.03512 92.0752 6.74555 92.1288 6.4667C92.1824 6.17713 92.2307 5.93046 92.2736 5.72668C92.3165 5.51219 92.3433 5.3674 92.354 5.29233L93.6893 5.54972C93.6571 5.7106 93.6088 5.94118 93.5445 6.24148C93.4909 6.54177 93.4372 6.85816 93.3836 7.19063C93.3407 7.5231 93.3193 7.84485 93.3193 8.15587C93.3193 8.55269 93.3783 8.89588 93.4962 9.18545C93.6249 9.47502 93.8233 9.71097 94.0915 9.89329C94.3703 10.0756 94.7296 10.2097 95.1693 10.2955C95.6197 10.3813 96.1614 10.4242 96.7941 10.4242H101.476V3.61925H102.843V11.6629H96.778ZM104.58 11.6629V10.4242C104.645 10.4242 104.698 10.4403 104.741 10.4724C104.784 10.4939 104.816 10.5314 104.838 10.585C104.859 10.6387 104.875 10.703 104.886 10.7781C104.897 10.8532 104.902 10.939 104.902 11.0355C104.902 11.132 104.897 11.2232 104.886 11.309C104.875 11.3841 104.859 11.4484 104.838 11.502C104.816 11.5556 104.784 11.5985 104.741 11.6307C104.698 11.6522 104.645 11.6629 104.58 11.6629ZM95.5876 3.66751V2.17139H96.955V3.66751H95.5876ZM97.8881 3.66751V2.17139H99.2555V3.66751H97.8881ZM107.817 11.6629V10.4242H109.586V11.6629H107.817ZM109.586 11.6629V10.4242C109.651 10.4242 109.704 10.4403 109.747 10.4724C109.79 10.4939 109.822 10.5314 109.844 10.585C109.865 10.6387 109.881 10.703 109.892 10.7781C109.903 10.8532 109.908 10.939 109.908 11.0355C109.908 11.132 109.903 11.2232 109.892 11.309C109.881 11.3841 109.865 11.4484 109.844 11.502C109.822 11.5556 109.79 11.5985 109.747 11.6307C109.704 11.6522 109.651 11.6629 109.586 11.6629ZM104.583 11.6629C104.519 11.6629 104.465 11.6522 104.422 11.6307C104.379 11.5985 104.347 11.5556 104.326 11.502C104.304 11.4484 104.288 11.3841 104.277 11.309C104.267 11.2232 104.261 11.132 104.261 11.0355C104.261 10.9068 104.272 10.7995 104.294 10.7137C104.304 10.6279 104.336 10.5582 104.39 10.5046C104.433 10.451 104.497 10.4242 104.583 10.4242V11.6629ZM104.583 11.6629V10.4242H107.109L106.433 10.9711V3.61925H107.817V11.6629H104.583ZM105.227 14.639V13.1429H106.594V14.639H105.227ZM107.527 14.639V13.1429H108.895V14.639H107.527ZM121.87 11.6629V10.4242H123.607V11.6629H121.87ZM109.579 11.6629C109.515 11.6629 109.461 11.6522 109.418 11.6307C109.375 11.5985 109.343 11.5556 109.322 11.502C109.3 11.4484 109.284 11.3841 109.273 11.309C109.263 11.2232 109.257 11.132 109.257 11.0355C109.257 10.9068 109.268 10.7995 109.289 10.7137C109.3 10.6279 109.332 10.5582 109.386 10.5046C109.429 10.451 109.493 10.4242 109.579 10.4242V11.6629ZM118.186 11.6629C117.81 11.6629 117.44 11.5932 117.076 11.4538C116.711 11.3036 116.368 11.0784 116.046 10.7781L116.931 9.84503C117.178 10.0488 117.397 10.199 117.59 10.2955C117.784 10.3813 117.982 10.4242 118.186 10.4242H121.065L120.486 11.0033V7.19063C120.486 7.00831 120.465 6.74018 120.422 6.38626C120.39 6.03234 120.336 5.63552 120.261 5.1958C120.197 4.74536 120.116 4.29491 120.02 3.84447L121.371 3.61925C121.446 3.99462 121.521 4.41289 121.596 4.87406C121.671 5.33523 121.736 5.77495 121.789 6.19322C121.843 6.61149 121.87 6.94396 121.87 7.19063V11.6629H118.186ZM109.579 11.6629V10.4242H111.928L111.59 10.762V5.22798H112.941V11.6629H109.579ZM112.941 11.6629V10.4242H114.695C115.059 10.4242 115.333 10.3706 115.515 10.2633C115.708 10.1561 115.842 9.94156 115.917 9.61981C115.992 9.29806 116.03 8.82617 116.03 8.20413V4.42361H117.397V8.20413C117.397 9.05139 117.306 9.73242 117.124 10.2472C116.942 10.7513 116.652 11.1159 116.255 11.3412C115.858 11.5556 115.338 11.6629 114.695 11.6629H112.941ZM123.607 11.6629V10.4242C123.671 10.4242 123.725 10.4403 123.768 10.4724C123.811 10.4939 123.843 10.5314 123.865 10.585C123.886 10.6387 123.902 10.703 123.913 10.7781C123.924 10.8532 123.929 10.939 123.929 11.0355C123.929 11.132 123.924 11.2232 123.913 11.309C123.902 11.3841 123.886 11.4484 123.865 11.502C123.843 11.5556 123.811 11.5985 123.768 11.6307C123.725 11.6522 123.671 11.6629 123.607 11.6629ZM123.608 11.6629V10.4242H126.005L125.346 10.9711V3.61925H126.713V11.6629H123.608ZM123.608 11.6629C123.544 11.6629 123.49 11.6522 123.447 11.6307C123.404 11.5985 123.372 11.5556 123.351 11.502C123.329 11.4484 123.313 11.3841 123.303 11.309C123.292 11.2232 123.287 11.132 123.287 11.0355C123.287 10.9068 123.297 10.7995 123.319 10.7137C123.329 10.6279 123.362 10.5582 123.415 10.5046C123.458 10.451 123.522 10.4242 123.608 10.4242V11.6629ZM125.346 2.17139V0.675273H126.729V2.17139H125.346Z" fill="url(#paint0_linear_606_29526)"/>
<path d="M0 13.6738H9.92575V14.4782H0V13.6738ZM14.378 13.6738H15.5579V14.4782H14.378V13.6738ZM27.5903 13.6738H104.423V14.4782H27.5903V13.6738ZM109.7 13.6738H128V14.4782H109.7V13.6738Z" fill="url(#paint1_linear_606_29526)"/>
<defs>
<linearGradient id="paint0_linear_606_29526" x1="128.007" y1="5.63017" x2="-543.637" y2="5.63017" gradientUnits="userSpaceOnUse">
<stop stop-color="#805B3C"/>
<stop offset="1" stop-color="#D3BAA4"/>
</linearGradient>
<linearGradient id="paint1_linear_606_29526" x1="128.007" y1="5.63017" x2="-543.637" y2="5.63017" gradientUnits="userSpaceOnUse">
<stop stop-color="#805B3C"/>
<stop offset="1" stop-color="#D3BAA4"/>
</linearGradient>
</defs>
</svg>
