<svg width="253" height="21" viewBox="0 0 253 21" fill="none" xmlns="http://www.w3.org/2000/svg">
<path d="M6.16387 19.7353C5.11854 19.7353 4.18134 19.5431 3.35228 19.1586C2.53524 18.7861 1.89242 18.2634 1.42382 17.5906C0.95522 16.9177 0.720921 16.1547 0.720921 15.3016C0.720921 15.0613 0.738944 14.7429 0.77499 14.3464C0.811036 13.9499 0.859097 13.5053 0.919174 13.0127C0.991266 12.5201 1.06336 12.0214 1.13545 11.5168C1.21956 11.0001 1.29766 10.5015 1.36975 10.0209L3.74879 10.3453C3.61662 11.1503 3.50247 11.8893 3.40635 12.5621C3.32224 13.223 3.25616 13.7877 3.2081 14.2563C3.16004 14.7249 3.13601 15.0673 3.13601 15.2836C3.13601 15.7642 3.25616 16.1788 3.49647 16.5272C3.73677 16.8756 4.07921 17.146 4.52378 17.3382C4.98036 17.5425 5.52706 17.6446 6.16387 17.6446C6.82472 17.6446 7.3594 17.5485 7.76792 17.3563C8.17644 17.164 8.47082 16.8997 8.65105 16.5632C8.84329 16.2268 8.93942 15.8483 8.93942 15.4278V6.21803H11.3545V15.4278C11.3545 16.2929 11.1262 17.0499 10.6696 17.6987C10.2251 18.3475 9.61228 18.8462 8.83128 19.1946C8.05028 19.5551 7.16115 19.7353 6.16387 19.7353ZM4.84819 5.56921V3.51458H7.26328V5.56921H4.84819ZM13.323 15.2656V13.1749H22.4786L21.3252 14.3644V2.52332H23.7403V15.2656H13.323ZM15.8282 13.1749V5.04654H18.2252V13.1749H15.8282ZM15.1072 3.71284L14.152 2.99191L15.1072 1.5681H16.495C16.6632 1.70026 16.8615 1.8024 17.0898 1.87449C17.3181 1.94658 17.5524 1.98263 17.7927 1.98263C18.033 1.98263 18.2613 1.94658 18.4775 1.87449C18.7058 1.8024 18.8981 1.70026 19.0543 1.5681L19.8112 2.10879C19.6671 2.34909 19.4808 2.57738 19.2525 2.79366C19.0362 2.99792 18.7779 3.16614 18.4775 3.29831C18.1772 3.41846 17.8287 3.47854 17.4322 3.47854C17.1438 3.47854 16.8675 3.44249 16.6031 3.3704C16.3388 3.28629 16.0985 3.16614 15.8822 3.00994L15.1072 3.71284ZM26.6853 15.2656V2.52332H29.0824V15.2656H26.6853ZM41.2885 15.2656C40.0028 15.2656 38.9155 15.0974 38.0263 14.7609C37.1492 14.4245 36.4823 13.9259 36.0258 13.265C35.5812 12.6042 35.3589 11.7811 35.3589 10.7959C35.3589 10.5075 35.3769 10.2071 35.413 9.89473C35.449 9.57032 35.4911 9.26392 35.5391 8.97556C35.5992 8.67517 35.6533 8.41084 35.7013 8.18254C35.7494 7.95425 35.7855 7.78604 35.8095 7.6779L38.1525 8.12847C38.1164 8.32072 38.0684 8.56703 38.0083 8.86742C37.9482 9.1678 37.8941 9.48621 37.8461 9.82264C37.798 10.1471 37.774 10.4595 37.774 10.7598C37.774 11.2284 37.8461 11.6189 37.9903 11.9313C38.1465 12.2437 38.3748 12.4961 38.6751 12.6883C38.9755 12.8685 39.354 12.9947 39.8106 13.0668C40.2672 13.1389 40.8019 13.1749 41.4146 13.1749H46.2268V6.21803H48.6419V15.2656H41.2885ZM40.928 19.1045V17.0499H43.3431V19.1045H40.928ZM53.7584 15.2656V13.1749H55.8131V15.2656H53.7584ZM51.3614 15.2656V2.52332H53.7584V15.2656H51.3614ZM55.8131 15.2656V13.1749C55.8852 13.1749 55.9392 13.199 55.9753 13.247C56.0233 13.2951 56.0594 13.3672 56.0834 13.4633C56.1195 13.5594 56.1435 13.6736 56.1555 13.8057C56.1675 13.9259 56.1735 14.0641 56.1735 14.2203C56.1735 14.3765 56.1675 14.5206 56.1555 14.6528C56.1435 14.785 56.1195 14.8991 56.0834 14.9952C56.0594 15.0794 56.0233 15.1454 55.9753 15.1935C55.9392 15.2416 55.8852 15.2656 55.8131 15.2656ZM70.9328 15.2656V13.1749H72.8433V15.2656H70.9328ZM55.8115 15.2656C55.7394 15.2656 55.6854 15.2416 55.6493 15.1935C55.6012 15.1454 55.5652 15.0794 55.5412 14.9952C55.5051 14.8991 55.4811 14.785 55.4691 14.6528C55.4571 14.5206 55.4511 14.3765 55.4511 14.2203C55.4511 14.004 55.4631 13.8237 55.4871 13.6796C55.5111 13.5234 55.5532 13.4032 55.6133 13.3191C55.6613 13.223 55.7274 13.1749 55.8115 13.1749V15.2656ZM66.409 15.2656C65.9164 15.2656 65.4238 15.1755 64.9312 14.9952C64.4505 14.803 64.006 14.5206 63.5975 14.1482L65.0753 12.6162C65.3157 12.8085 65.5379 12.9526 65.7422 13.0488C65.9585 13.1329 66.1808 13.1749 66.409 13.1749H69.7794L68.5358 14.3104V10.3093C68.5358 10.117 68.5117 9.82865 68.4637 9.44416C68.4276 9.04765 68.3676 8.60308 68.2834 8.11045C68.2114 7.60581 68.1212 7.09516 68.0131 6.5785L70.3921 6.21803C70.4762 6.65059 70.5543 7.13721 70.6264 7.6779C70.7105 8.20657 70.7826 8.71122 70.8427 9.19183C70.9028 9.66043 70.9328 10.0329 70.9328 10.3093V15.2656H66.409ZM55.8115 15.2656V13.1749H58.4429L57.9022 13.7336V8.05638H60.3173V15.2656H55.8115ZM60.3173 15.2656V13.1749H61.7771C62.1616 13.1749 62.456 13.1209 62.6603 13.0127C62.8645 12.8926 63.0027 12.6583 63.0748 12.3098C63.1589 11.9494 63.201 11.4147 63.201 10.7058V7.15523H65.616V10.7058C65.616 11.7751 65.4779 12.6462 65.2015 13.3191C64.9372 13.992 64.5226 14.4846 63.9579 14.797C63.3932 15.1094 62.6663 15.2656 61.7771 15.2656H60.3173ZM72.8433 15.2656V13.1749C72.9033 13.1749 72.9574 13.199 73.0055 13.247C73.0535 13.2951 73.0896 13.3672 73.1136 13.4633C73.1376 13.5594 73.1557 13.6736 73.1677 13.8057C73.1917 13.9259 73.2037 14.0641 73.2037 14.2203C73.2037 14.3765 73.1917 14.5206 73.1677 14.6528C73.1557 14.785 73.1376 14.8991 73.1136 14.9952C73.0896 15.0794 73.0535 15.1454 73.0055 15.1935C72.9574 15.2416 72.9033 15.2656 72.8433 15.2656ZM72.8489 15.2656V13.1749H80.5988L79.7878 13.8418V10.5075C79.7878 9.78659 79.5595 9.23989 79.1029 8.86742C78.6583 8.49494 77.9494 8.30871 76.9762 8.30871C76.6998 8.30871 76.3213 8.33274 75.8407 8.3808C75.3601 8.41684 74.8374 8.47692 74.2727 8.56103L74.0384 6.65059C74.5551 6.53043 75.0777 6.4283 75.6064 6.3442C76.1471 6.26009 76.6758 6.21803 77.1924 6.21803C78.1777 6.21803 79.0428 6.39226 79.7878 6.7407C80.5327 7.07713 81.1155 7.56375 81.536 8.20057C81.9685 8.83738 82.1848 9.60636 82.1848 10.5075V15.2656H72.8489ZM72.8489 15.2656C72.7768 15.2656 72.7227 15.2416 72.6867 15.1935C72.6386 15.1454 72.6026 15.0794 72.5786 14.9952C72.5425 14.8991 72.5185 14.785 72.5065 14.6528C72.4944 14.5206 72.4884 14.3765 72.4884 14.2203C72.4884 14.004 72.5005 13.8237 72.5245 13.6796C72.5485 13.5234 72.5906 13.4032 72.6506 13.3191C72.6987 13.223 72.7648 13.1749 72.8489 13.1749V15.2656ZM90.2573 14.8511C89.7527 14.2863 89.3742 13.7336 89.1219 13.1929C88.8815 12.6523 88.7614 12.0755 88.7614 11.4627C88.7614 10.8139 88.8815 10.2191 89.1219 9.67845C89.3742 9.13776 89.7166 8.66917 90.1492 8.27266C90.5817 7.87615 91.0804 7.56976 91.6451 7.35349C92.2218 7.12519 92.8286 7.01105 93.4654 7.01105C93.958 7.01105 94.4386 7.07713 94.9072 7.2093C95.3879 7.32945 95.8024 7.50968 96.1508 7.74999L95.0694 9.49822C94.8291 9.36606 94.5828 9.26993 94.3305 9.20986C94.0902 9.13776 93.8319 9.10172 93.5555 9.10172C93.0869 9.10172 92.6724 9.20385 92.3119 9.40811C91.9515 9.60035 91.6691 9.8707 91.4648 10.2191C91.2726 10.5676 91.1765 10.9701 91.1765 11.4267C91.1765 11.7992 91.2426 12.1476 91.3747 12.472C91.5189 12.7964 91.7472 13.1329 92.0596 13.4813L90.2573 14.8511ZM87.8783 15.2656V13.1749H97.0159V15.2656H87.8783ZM101.632 15.2656V13.1749H103.687V15.2656H101.632ZM99.235 15.2656V2.52332H101.632V15.2656H99.235ZM103.687 15.2656V13.1749C103.759 13.1749 103.813 13.199 103.849 13.247C103.897 13.2951 103.933 13.3672 103.957 13.4633C103.993 13.5594 104.017 13.6736 104.029 13.8057C104.041 13.9259 104.047 14.0641 104.047 14.2203C104.047 14.3765 104.041 14.5206 104.029 14.6528C104.017 14.785 103.993 14.8991 103.957 14.9952C103.933 15.0794 103.897 15.1454 103.849 15.1935C103.813 15.2416 103.759 15.2656 103.687 15.2656ZM118.806 15.2656V13.1749H120.717V15.2656H118.806ZM103.685 15.2656C103.613 15.2656 103.559 15.2416 103.523 15.1935C103.475 15.1454 103.439 15.0794 103.415 14.9952C103.379 14.8991 103.355 14.785 103.343 14.6528C103.331 14.5206 103.325 14.3765 103.325 14.2203C103.325 14.004 103.337 13.8237 103.361 13.6796C103.385 13.5234 103.427 13.4032 103.487 13.3191C103.535 13.223 103.601 13.1749 103.685 13.1749V15.2656ZM114.283 15.2656C113.79 15.2656 113.297 15.1755 112.805 14.9952C112.324 14.803 111.88 14.5206 111.471 14.1482L112.949 12.6162C113.189 12.8085 113.412 12.9526 113.616 13.0488C113.832 13.1329 114.054 13.1749 114.283 13.1749H117.653L116.409 14.3104V10.3093C116.409 10.117 116.385 9.82865 116.337 9.44416C116.301 9.04765 116.241 8.60308 116.157 8.11045C116.085 7.60581 115.995 7.09516 115.887 6.5785L118.266 6.21803C118.35 6.65059 118.428 7.13721 118.5 7.6779C118.584 8.20657 118.656 8.71122 118.716 9.19183C118.776 9.66043 118.806 10.0329 118.806 10.3093V15.2656H114.283ZM103.685 15.2656V13.1749H106.317L105.776 13.7336V8.05638H108.191V15.2656H103.685ZM108.191 15.2656V13.1749H109.651C110.035 13.1749 110.33 13.1209 110.534 13.0127C110.738 12.8926 110.876 12.6583 110.948 12.3098C111.033 11.9494 111.075 11.4147 111.075 10.7058V7.15523H113.49V10.7058C113.49 11.7751 113.352 12.6462 113.075 13.3191C112.811 13.992 112.396 14.4846 111.832 14.797C111.267 15.1094 110.54 15.2656 109.651 15.2656H108.191ZM120.717 15.2656V13.1749C120.777 13.1749 120.831 13.199 120.879 13.247C120.927 13.2951 120.963 13.3672 120.987 13.4633C121.011 13.5594 121.029 13.6736 121.041 13.8057C121.065 13.9259 121.077 14.0641 121.077 14.2203C121.077 14.3765 121.065 14.5206 121.041 14.6528C121.029 14.785 121.011 14.8991 120.987 14.9952C120.963 15.0794 120.927 15.1454 120.879 15.1935C120.831 15.2416 120.777 15.2656 120.717 15.2656ZM111.255 1.80239V9.27441e-05H113.345V1.80239H111.255ZM109.507 4.55992V2.50529H111.832V4.55992H109.507ZM112.787 4.55992V2.50529H115.112V4.55992H112.787ZM120.723 15.2656V13.1749H124.021L122.615 14.3464V6.21803H125.03V15.2656H120.723ZM120.723 15.2656C120.65 15.2656 120.596 15.2416 120.56 15.1935C120.512 15.1454 120.476 15.0794 120.452 14.9952C120.416 14.8991 120.392 14.785 120.38 14.6528C120.368 14.5206 120.362 14.3765 120.362 14.2203C120.362 14.004 120.374 13.8237 120.398 13.6796C120.422 13.5234 120.464 13.4032 120.524 13.3191C120.572 13.223 120.638 13.1749 120.723 13.1749V15.2656ZM122.615 4.55992V2.50529H125.03V4.55992H122.615ZM127.959 15.2656V2.52332H130.356V15.2656H127.959ZM128.067 20.6545C127.839 20.3781 127.665 20.1138 127.545 19.8615C127.425 19.6091 127.364 19.3388 127.364 19.0504C127.364 18.6419 127.473 18.2694 127.689 17.933C127.905 17.6086 128.187 17.3503 128.536 17.158C128.884 16.9778 129.269 16.8877 129.689 16.8877C129.918 16.8877 130.152 16.9177 130.392 16.9778C130.633 17.0379 130.837 17.128 131.005 17.2481L130.392 18.3475C130.284 18.2874 130.176 18.2454 130.068 18.2214C129.972 18.2093 129.87 18.2033 129.762 18.2033C129.473 18.2033 129.251 18.2754 129.095 18.4196C128.938 18.5758 128.86 18.7801 128.86 19.0324C128.86 19.1766 128.89 19.3148 128.95 19.4469C129.011 19.5791 129.101 19.7233 129.221 19.8795L128.067 20.6545ZM126.968 20.7987V19.483H131.33V20.7987H126.968Z" fill="url(#paint0_linear_606_29528)"/>
<path d="M140.137 12.0134H139V11.4687C139 11.127 138.882 10.8172 138.647 10.5396C138.423 10.2619 138.076 9.92544 137.606 9.53027C137.189 9.1885 136.874 8.88945 136.661 8.63312C136.447 8.36611 136.303 8.08308 136.228 7.78404C136.153 7.48499 136.116 7.10049 136.116 6.63056C136.116 6.00042 136.233 5.49311 136.468 5.10862C136.714 4.72413 137.077 4.44644 137.558 4.27555C138.038 4.10467 138.642 4.01923 139.368 4.01923C139.646 4.01923 139.95 4.04593 140.281 4.09933C140.612 4.15273 140.938 4.21681 141.258 4.29157C141.579 4.36634 141.856 4.4411 142.091 4.51586L141.995 5.60525C141.782 5.55185 141.525 5.49845 141.226 5.44505C140.927 5.39165 140.628 5.34892 140.329 5.31688C140.03 5.27416 139.768 5.2528 139.544 5.2528C138.85 5.2528 138.337 5.36495 138.006 5.58923C137.686 5.81352 137.526 6.19267 137.526 6.72668C137.526 7.02573 137.558 7.27672 137.622 7.47965C137.697 7.68257 137.83 7.89084 138.022 8.10444C138.225 8.31805 138.519 8.58506 138.903 8.90547C139.192 9.15111 139.443 9.38608 139.656 9.61037C139.881 9.83465 140.052 10.0589 140.169 10.2832C140.297 10.5075 140.361 10.7478 140.361 11.0041C140.361 11.2178 140.335 11.41 140.281 11.5809C140.238 11.7518 140.19 11.896 140.137 12.0134ZM140.329 15.2496H138.855V13.3592H140.329V15.2496ZM151.656 15.2656C150.588 15.2656 149.696 15.1428 148.98 14.8971C148.265 14.6408 147.725 14.2563 147.362 13.7436C147.01 13.2203 146.833 12.5635 146.833 11.7731C146.833 11.5168 146.849 11.2445 146.881 10.9561C146.924 10.657 146.972 10.3687 147.026 10.091C147.079 9.80261 147.127 9.55697 147.17 9.35404C147.213 9.14043 147.239 8.99625 147.25 8.92149L148.58 9.17781C148.548 9.33802 148.5 9.56765 148.435 9.86669C148.382 10.1657 148.329 10.4808 148.275 10.8119C148.233 11.143 148.211 11.4634 148.211 11.7731C148.211 12.1683 148.27 12.5101 148.387 12.7984C148.516 13.0868 148.713 13.3218 148.98 13.5033C149.258 13.6849 149.616 13.8184 150.054 13.9039C150.502 13.9893 151.041 14.032 151.672 14.032H156.334V7.25536H157.695V15.2656H151.656ZM151.607 18.2294V16.7395H152.985V18.2294H151.607ZM161.843 15.2656V14.032H163.781V15.2656H161.843ZM160.481 15.2656V3.79494H161.843V15.2656H160.481ZM163.781 15.2656V14.032C163.845 14.032 163.899 14.048 163.941 14.0801C163.984 14.1014 164.016 14.1388 164.037 14.1922C164.059 14.2456 164.075 14.3097 164.085 14.3845C164.096 14.4592 164.101 14.5447 164.101 14.6408C164.101 14.7369 164.096 14.8277 164.085 14.9131C164.075 14.9879 164.059 15.052 164.037 15.1054C164.016 15.1588 163.984 15.2015 163.941 15.2335C163.899 15.2549 163.845 15.2656 163.781 15.2656ZM176.017 15.2656V14.032H177.747V15.2656H176.017ZM163.778 15.2656C163.713 15.2656 163.66 15.2549 163.617 15.2335C163.575 15.2015 163.543 15.1588 163.521 15.1054C163.5 15.052 163.484 14.9879 163.473 14.9131C163.462 14.8277 163.457 14.7369 163.457 14.6408C163.457 14.5126 163.468 14.4058 163.489 14.3204C163.5 14.2349 163.532 14.1655 163.585 14.1121C163.628 14.0587 163.692 14.032 163.778 14.032V15.2656ZM172.348 15.2656C171.975 15.2656 171.606 15.1962 171.243 15.0573C170.88 14.9078 170.538 14.6835 170.218 14.3845L171.099 13.4553C171.345 13.6582 171.563 13.8077 171.756 13.9039C171.948 13.9893 172.146 14.032 172.348 14.032H175.216L174.639 14.6088V10.8119C174.639 10.6303 174.618 10.3633 174.575 10.0109C174.543 9.65843 174.49 9.26326 174.415 8.82536C174.351 8.37679 174.271 7.92822 174.175 7.47965L175.521 7.25536C175.595 7.62917 175.67 8.0457 175.745 8.50496C175.82 8.96421 175.884 9.4021 175.937 9.81863C175.99 10.2352 176.017 10.5663 176.017 10.8119V15.2656H172.348ZM163.778 15.2656V14.032H166.117L165.78 14.3684V8.85741H167.126V15.2656H163.778ZM167.126 15.2656V14.032H168.872C169.235 14.032 169.508 13.9786 169.689 13.8718C169.881 13.765 170.015 13.5514 170.09 13.231C170.164 12.9106 170.202 12.4406 170.202 11.8212V8.05638H171.563V11.8212C171.563 12.6649 171.473 13.3431 171.291 13.8558C171.11 14.3578 170.821 14.7209 170.426 14.9452C170.031 15.1588 169.513 15.2656 168.872 15.2656H167.126ZM177.747 15.2656V14.032C177.811 14.032 177.865 14.048 177.908 14.0801C177.95 14.1014 177.982 14.1388 178.004 14.1922C178.025 14.2456 178.041 14.3097 178.052 14.3845C178.062 14.4592 178.068 14.5447 178.068 14.6408C178.068 14.7369 178.062 14.8277 178.052 14.9131C178.041 14.9879 178.025 15.052 178.004 15.1054C177.982 15.1588 177.95 15.2015 177.908 15.2335C177.865 15.2549 177.811 15.2656 177.747 15.2656ZM177.748 15.2656V14.032H184.781L184.365 14.4005V10.5716C184.365 9.87738 184.146 9.35938 183.708 9.01761C183.281 8.67584 182.629 8.50496 181.754 8.50496C181.476 8.50496 181.081 8.53166 180.568 8.58506C180.066 8.62778 179.532 8.68652 178.966 8.76128L178.806 7.65587C179.244 7.54907 179.719 7.45829 180.232 7.38352C180.755 7.29808 181.262 7.25536 181.754 7.25536C182.565 7.25536 183.27 7.38352 183.868 7.63985C184.466 7.89618 184.926 8.26999 185.246 8.76128C185.566 9.25258 185.727 9.85601 185.727 10.5716V15.2656H177.748ZM177.748 15.2656C177.684 15.2656 177.631 15.2549 177.588 15.2335C177.546 15.2015 177.514 15.1588 177.492 15.1054C177.471 15.052 177.455 14.9879 177.444 14.9131C177.433 14.8277 177.428 14.7369 177.428 14.6408C177.428 14.5126 177.439 14.4058 177.46 14.3204C177.471 14.2349 177.503 14.1655 177.556 14.1121C177.599 14.0587 177.663 14.032 177.748 14.032V15.2656ZM201.705 15.2656V14.032H203.435V15.2656H201.705ZM195.665 15.2656C194.597 15.2656 193.705 15.1428 192.989 14.8971C192.274 14.6408 191.735 14.2563 191.371 13.7436C191.019 13.2203 190.843 12.5635 190.843 11.7731C190.843 11.5168 190.859 11.2445 190.891 10.9561C190.934 10.657 190.982 10.3687 191.035 10.091C191.088 9.80261 191.136 9.55697 191.179 9.35404C191.222 9.14043 191.249 8.99625 191.259 8.92149L192.589 9.17781C192.557 9.33802 192.509 9.56765 192.445 9.86669C192.391 10.1657 192.338 10.4808 192.285 10.8119C192.242 11.143 192.22 11.4634 192.22 11.7731C192.22 12.1683 192.279 12.5101 192.397 12.7984C192.525 13.0868 192.722 13.3218 192.989 13.5033C193.267 13.6849 193.625 13.8184 194.063 13.9039C194.511 13.9893 195.051 14.032 195.681 14.032H201L200.343 14.5767V3.79494H201.705V15.2656H195.665ZM203.435 15.2656V14.032C203.499 14.032 203.552 14.048 203.595 14.0801C203.638 14.1014 203.67 14.1388 203.691 14.1922C203.712 14.2456 203.729 14.3097 203.739 14.3845C203.75 14.4592 203.755 14.5447 203.755 14.6408C203.755 14.7369 203.75 14.8277 203.739 14.9131C203.729 14.9879 203.712 15.052 203.691 15.1054C203.67 15.1588 203.638 15.2015 203.595 15.2335C203.552 15.2549 203.499 15.2656 203.435 15.2656ZM195.505 9.65843C195.334 9.44482 195.2 9.23656 195.104 9.03363C195.008 8.82002 194.96 8.60108 194.96 8.37679C194.96 8.05638 195.04 7.77335 195.2 7.52771C195.36 7.27138 195.574 7.07379 195.841 6.93495C196.108 6.78543 196.396 6.71066 196.706 6.71066C196.877 6.71066 197.048 6.73736 197.219 6.79077C197.4 6.83349 197.555 6.89757 197.683 6.98301L197.251 7.75199C197.165 7.69859 197.08 7.66655 196.995 7.65587C196.92 7.63451 196.84 7.62383 196.754 7.62383C196.509 7.62383 196.311 7.69325 196.162 7.8321C196.023 7.97094 195.953 8.15251 195.953 8.37679C195.953 8.50496 195.98 8.63312 196.033 8.76128C196.097 8.88945 196.188 9.02829 196.306 9.17781L195.505 9.65843ZM194.656 9.67445V8.7773H197.908V9.67445H194.656ZM203.438 15.2656V14.032H205.953L205.28 14.5767V7.25536H206.658V15.2656H203.438ZM203.438 15.2656C203.373 15.2656 203.32 15.2549 203.277 15.2335C203.235 15.2015 203.203 15.1588 203.181 15.1054C203.16 15.052 203.144 14.9879 203.133 14.9131C203.122 14.8277 203.117 14.7369 203.117 14.6408C203.117 14.5126 203.128 14.4058 203.149 14.3204C203.16 14.2349 203.192 14.1655 203.245 14.1121C203.288 14.0587 203.352 14.032 203.438 14.032V15.2656ZM204.078 18.2294V16.7395H205.44V18.2294H204.078ZM206.369 18.2294V16.7395H207.731V18.2294H206.369ZM214.832 15.2656V14.032H216.546V15.2656H214.832ZM208.584 15.2656V14.032H214.544L213.454 14.9932V11.6129C213.454 10.8226 213.364 10.2031 213.182 9.75455C213.011 9.2953 212.723 8.96955 212.317 8.7773C211.911 8.58506 211.366 8.48894 210.683 8.48894H209.385V7.25536H210.683C211.559 7.25536 212.306 7.3942 212.926 7.67189C213.545 7.9389 214.015 8.39281 214.335 9.03363C214.667 9.66377 214.832 10.5235 214.832 11.6129V15.2656H208.584ZM216.546 15.2656V14.032C216.61 14.032 216.664 14.048 216.707 14.0801C216.749 14.1014 216.781 14.1388 216.803 14.1922C216.824 14.2456 216.84 14.3097 216.851 14.3845C216.861 14.4592 216.867 14.5447 216.867 14.6408C216.867 14.7369 216.861 14.8277 216.851 14.9131C216.84 14.9879 216.824 15.052 216.803 15.1054C216.781 15.1588 216.749 15.2015 216.707 15.2335C216.664 15.2549 216.61 15.2656 216.546 15.2656ZM218.471 15.2656V3.79494H219.848V15.2656H218.471ZM216.548 15.2656V14.032H218.471V15.2656H216.548ZM216.548 15.2656C216.484 15.2656 216.431 15.2549 216.388 15.2335C216.345 15.2015 216.313 15.1588 216.292 15.1054C216.27 15.052 216.254 14.9879 216.244 14.9131C216.233 14.8277 216.228 14.7369 216.228 14.6408C216.228 14.5126 216.238 14.4058 216.26 14.3204C216.27 14.2349 216.302 14.1655 216.356 14.1121C216.399 14.0587 216.463 14.032 216.548 14.032V15.2656ZM242.997 15.2656V14.032H244.728V15.2656H242.997ZM229.765 19.2387C228.91 19.2387 228.136 19.0785 227.442 18.7581C226.758 18.4483 226.213 18.0104 225.808 17.4444C225.412 16.889 225.215 16.2535 225.215 15.5379C225.215 15.3137 225.231 15.0199 225.263 14.6568C225.306 14.283 225.354 13.8718 225.407 13.4232C225.471 12.9747 225.54 12.5208 225.615 12.0615C225.69 11.5916 225.759 11.1483 225.824 10.7318L227.169 10.9401C227.052 11.6663 226.95 12.3445 226.865 12.9747C226.779 13.5941 226.71 14.1228 226.657 14.5607C226.614 14.9986 226.593 15.3243 226.593 15.5379C226.593 16.0186 226.721 16.4404 226.977 16.8036C227.244 17.1774 227.618 17.4711 228.098 17.6847C228.579 17.8983 229.134 18.0051 229.765 18.0051C230.395 18.0051 230.934 17.9036 231.383 17.7007C231.831 17.5085 232.173 17.2308 232.408 16.8676C232.643 16.5152 232.76 16.104 232.76 15.6341V8.85741H234.122V15.6341C234.122 16.3817 233.925 17.0225 233.529 17.5565C233.145 18.1012 232.622 18.5177 231.959 18.8061C231.308 19.0945 230.576 19.2387 229.765 19.2387ZM234.122 15.2656V14.032H235.852C236.215 14.032 236.493 13.9786 236.685 13.8718C236.878 13.765 237.011 13.5514 237.086 13.231C237.161 12.9106 237.198 12.4406 237.198 11.8212V8.05638H238.56V11.8212C238.56 12.6649 238.464 13.3431 238.271 13.8558C238.09 14.3578 237.801 14.7209 237.406 14.9452C237.011 15.1588 236.493 15.2656 235.852 15.2656H234.122ZM239.329 15.2656C238.955 15.2656 238.586 15.1962 238.223 15.0573C237.871 14.9078 237.529 14.6835 237.198 14.3845L238.079 13.4553C238.325 13.6582 238.544 13.8077 238.736 13.9039C238.939 13.9893 239.137 14.032 239.329 14.032H242.212L241.636 14.6088V10.8119C241.636 10.6303 241.614 10.3633 241.572 10.0109C241.529 9.65843 241.47 9.26326 241.395 8.82536C241.331 8.37679 241.257 7.92822 241.171 7.47965L242.517 7.25536C242.592 7.62917 242.666 8.0457 242.741 8.50496C242.816 8.96421 242.875 9.4021 242.917 9.81863C242.971 10.2352 242.997 10.5663 242.997 10.8119V15.2656H239.329ZM244.728 15.2656V14.032C244.792 14.032 244.845 14.048 244.888 14.0801C244.931 14.1014 244.963 14.1388 244.984 14.1922C245.005 14.2456 245.021 14.3097 245.032 14.3845C245.043 14.4592 245.048 14.5447 245.048 14.6408C245.048 14.7369 245.043 14.8277 245.032 14.9131C245.021 14.9879 245.005 15.052 244.984 15.1054C244.963 15.1588 244.931 15.2015 244.888 15.2335C244.845 15.2549 244.792 15.2656 244.728 15.2656ZM247.945 15.2656V14.032H249.707V15.2656H247.945ZM249.707 15.2656V14.032C249.771 14.032 249.825 14.048 249.867 14.0801C249.91 14.1014 249.942 14.1388 249.963 14.1922C249.985 14.2456 250.001 14.3097 250.011 14.3845C250.022 14.4592 250.027 14.5447 250.027 14.6408C250.027 14.7369 250.022 14.8277 250.011 14.9131C250.001 14.9879 249.985 15.052 249.963 15.1054C249.942 15.1588 249.91 15.2015 249.867 15.2335C249.825 15.2549 249.771 15.2656 249.707 15.2656ZM244.725 15.2656C244.661 15.2656 244.607 15.2549 244.564 15.2335C244.522 15.2015 244.49 15.1588 244.468 15.1054C244.447 15.052 244.431 14.9879 244.42 14.9131C244.41 14.8277 244.404 14.7369 244.404 14.6408C244.404 14.5126 244.415 14.4058 244.436 14.3204C244.447 14.2349 244.479 14.1655 244.532 14.1121C244.575 14.0587 244.639 14.032 244.725 14.032V15.2656ZM244.725 15.2656V14.032H247.24L246.567 14.5767V7.25536H247.945V15.2656H244.725ZM245.365 18.2294V16.7395H246.727V18.2294H245.365ZM247.656 18.2294V16.7395H249.018V18.2294H247.656ZM251.622 15.2656V3.79494H253V15.2656H251.622ZM249.7 15.2656V14.032H251.622V15.2656H249.7ZM249.7 15.2656C249.636 15.2656 249.582 15.2549 249.54 15.2335C249.497 15.2015 249.465 15.1588 249.443 15.1054C249.422 15.052 249.406 14.9879 249.395 14.9131C249.385 14.8277 249.379 14.7369 249.379 14.6408C249.379 14.5126 249.39 14.4058 249.411 14.3204C249.422 14.2349 249.454 14.1655 249.508 14.1121C249.55 14.0587 249.614 14.032 249.7 14.032V15.2656Z" fill="#1A1713"/>
<path d="M0 17.5185H0.478547V18.4196H0V17.5185ZM11.6835 17.5185H40.0291V18.4196H11.6835V17.5185ZM44.2407 17.5185H126.561V18.4196H44.2407V17.5185Z" fill="url(#paint1_linear_606_29528)"/>
<defs>
<linearGradient id="paint0_linear_606_29528" x1="461.53" y1="8.25665" x2="-207.324" y2="8.25665" gradientUnits="userSpaceOnUse">
<stop stop-color="#805B3C"/>
<stop offset="1" stop-color="#D3BAA4"/>
</linearGradient>
<linearGradient id="paint1_linear_606_29528" x1="461.53" y1="8.25665" x2="-207.324" y2="8.25665" gradientUnits="userSpaceOnUse">
<stop stop-color="#805B3C"/>
<stop offset="1" stop-color="#D3BAA4"/>
</linearGradient>
</defs>
</svg>
